{
    "asset" : {
        "generator" : "Khronos glTF Blender I/O v1.3.48",
        "version" : "2.0"
    },
    "scene" : 0,
    "scenes" : [
        {
            "name" : "Scene",
            "nodes" : [
                0,
                1
            ]
        }
    ],
    "nodes" : [
        {
            "mesh" : 0,
            "name" : "Cube",
            "translation" : [
                0.0043889316730201244,
                -0.005096660926938057,
                0.03592792525887489
            ]
        },
        {
            "mesh" : 1,
            "name" : "Cube.001",
            "translation" : [
                -0.8351521492004395,
                1.6019186973571777,
                0.025403423234820366
            ]
        }
    ],
    "materials" : [
        {
            "doubleSided" : true,
            "emissiveFactor" : [
                0,
                0,
                0
            ],
            "name" : "metal",
            "pbrMetallicRoughness" : {
                "baseColorFactor" : [
                    0.8000000715255737,
                    0.45951467752456665,
                    0.01865205727517605,
                    1
                ],
                "metallicFactor" : 0,
                "roughnessFactor" : 0.5
            }
        },
        {
            "doubleSided" : true,
            "emissiveFactor" : [
                0,
                0,
                0
            ],
            "name" : "wood",
            "pbrMetallicRoughness" : {
                "baseColorFactor" : [
                    0.25294405221939087,
                    0.10283136367797852,
                    0.044585540890693665,
                    1
                ],
                "metallicFactor" : 0,
                "roughnessFactor" : 0.5
            }
        }
    ],
    "meshes" : [
        {
            "name" : "Cube.001",
            "primitives" : [
                {
                    "attributes" : {
                        "POSITION" : 0,
                        "NORMAL" : 1,
                        "TEXCOORD_0" : 2
                    },
                    "indices" : 3,
                    "material" : 0
                },
                {
                    "attributes" : {
                        "POSITION" : 4,
                        "NORMAL" : 5,
                        "TEXCOORD_0" : 6
                    },
                    "indices" : 7,
                    "material" : 1
                }
            ]
        },
        {
            "name" : "Cube.002",
            "primitives" : [
                {
                    "attributes" : {
                        "POSITION" : 8,
                        "NORMAL" : 9,
                        "TEXCOORD_0" : 10
                    },
                    "indices" : 11,
                    "material" : 0
                },
                {
                    "attributes" : {
                        "POSITION" : 12,
                        "NORMAL" : 13,
                        "TEXCOORD_0" : 14
                    },
                    "indices" : 15,
                    "material" : 1
                }
            ]
        }
    ],
    "accessors" : [
        {
            "bufferView" : 0,
            "componentType" : 5126,
            "count" : 1590,
            "max" : [
                0.8313040137290955,
                1.616800308227539,
                2.1483922004699707
            ],
            "min" : [
                -0.8313040733337402,
                -0.023678362369537354,
                -2.1561989784240723
            ],
            "type" : "VEC3"
        },
        {
            "bufferView" : 1,
            "componentType" : 5126,
            "count" : 1590,
            "type" : "VEC3"
        },
        {
            "bufferView" : 2,
            "componentType" : 5126,
            "count" : 1590,
            "type" : "VEC2"
        },
        {
            "bufferView" : 3,
            "componentType" : 5123,
            "count" : 2508,
            "type" : "SCALAR"
        },
        {
            "bufferView" : 4,
            "componentType" : 5126,
            "count" : 415,
            "max" : [
                0.7686277627944946,
                1.4279577732086182,
                1.9875816106796265
            ],
            "min" : [
                -0.7686284780502319,
                -0.023678362369537354,
                -1.995142936706543
            ],
            "type" : "VEC3"
        },
        {
            "bufferView" : 5,
            "componentType" : 5126,
            "count" : 415,
            "type" : "VEC3"
        },
        {
            "bufferView" : 6,
            "componentType" : 5126,
            "count" : 415,
            "type" : "VEC2"
        },
        {
            "bufferView" : 7,
            "componentType" : 5123,
            "count" : 888,
            "type" : "SCALAR"
        },
        {
            "bufferView" : 8,
            "componentType" : 5126,
            "count" : 1108,
            "max" : [
                1.8155295848846436,
                0.8922240734100342,
                2.162411689758301
            ],
            "min" : [
                0.006875395774841309,
                -0.30087408423423767,
                -2.147928476333618
            ],
            "type" : "VEC3"
        },
        {
            "bufferView" : 9,
            "componentType" : 5126,
            "count" : 1108,
            "type" : "VEC3"
        },
        {
            "bufferView" : 10,
            "componentType" : 5126,
            "count" : 1108,
            "type" : "VEC2"
        },
        {
            "bufferView" : 11,
            "componentType" : 5123,
            "count" : 1710,
            "type" : "SCALAR"
        },
        {
            "bufferView" : 12,
            "componentType" : 5126,
            "count" : 438,
            "max" : [
                1.6608762741088867,
                0.8656243085861206,
                1.947745680809021
            ],
            "min" : [
                0.1271103024482727,
                -0.13159474730491638,
                -1.945198893547058
            ],
            "type" : "VEC3"
        },
        {
            "bufferView" : 13,
            "componentType" : 5126,
            "count" : 438,
            "type" : "VEC3"
        },
        {
            "bufferView" : 14,
            "componentType" : 5126,
            "count" : 438,
            "type" : "VEC2"
        },
        {
            "bufferView" : 15,
            "componentType" : 5123,
            "count" : 660,
            "type" : "SCALAR"
        }
    ],
    "bufferViews" : [
        {
            "buffer" : 0,
            "byteLength" : 19080,
            "byteOffset" : 0
        },
        {
            "buffer" : 0,
            "byteLength" : 19080,
            "byteOffset" : 19080
        },
        {
            "buffer" : 0,
            "byteLength" : 12720,
            "byteOffset" : 38160
        },
        {
            "buffer" : 0,
            "byteLength" : 5016,
            "byteOffset" : 50880
        },
        {
            "buffer" : 0,
            "byteLength" : 4980,
            "byteOffset" : 55896
        },
        {
            "buffer" : 0,
            "byteLength" : 4980,
            "byteOffset" : 60876
        },
        {
            "buffer" : 0,
            "byteLength" : 3320,
            "byteOffset" : 65856
        },
        {
            "buffer" : 0,
            "byteLength" : 1776,
            "byteOffset" : 69176
        },
        {
            "buffer" : 0,
            "byteLength" : 13296,
            "byteOffset" : 70952
        },
        {
            "buffer" : 0,
            "byteLength" : 13296,
            "byteOffset" : 84248
        },
        {
            "buffer" : 0,
            "byteLength" : 8864,
            "byteOffset" : 97544
        },
        {
            "buffer" : 0,
            "byteLength" : 3420,
            "byteOffset" : 106408
        },
        {
            "buffer" : 0,
            "byteLength" : 5256,
            "byteOffset" : 109828
        },
        {
            "buffer" : 0,
            "byteLength" : 5256,
            "byteOffset" : 115084
        },
        {
            "buffer" : 0,
            "byteLength" : 3504,
            "byteOffset" : 120340
        },
        {
            "buffer" : 0,
            "byteLength" : 1320,
            "byteOffset" : 123844
        }
    ],
    "buffers" : [
        {
            "byteLength" : 125164,
            "uri" : "data:application/octet-stream;base64,"
        }
    ]
}
