{
    "asset" : {
        "generator" : "Khronos glTF Blender I/O v1.3.48",
        "version" : "2.0"
    },
    "scene" : 0,
    "scenes" : [
        {
            "name" : "Scene",
            "nodes" : [
                0,
                1,
                2
            ]
        }
    ],
    "nodes" : [
        {
            "mesh" : 0,
            "name" : "ruby",
            "translation" : [
                -1.769783616065979,
                0,
                0
            ]
        },
        {
            "mesh" : 1,
            "name" : "Star"
        },
        {
            "mesh" : 2,
            "name" : "Cylinder",
            "translation" : [
                1.5413808822631836,
                0,
                0
            ]
        }
    ],
    "meshes" : [
        {
            "name" : "Cylinder.001",
            "primitives" : [
                {
                    "attributes" : {
                        "POSITION" : 0,
                        "NORMAL" : 1,
                        "TEXCOORD_0" : 2
                    },
                    "indices" : 3
                }
            ]
        },
        {
            "name" : "Circle.001",
            "primitives" : [
                {
                    "attributes" : {
                        "POSITION" : 4,
                        "NORMAL" : 5,
                        "TEXCOORD_0" : 6
                    },
                    "indices" : 7
                }
            ]
        },
        {
            "name" : "Cylinder.002",
            "primitives" : [
                {
                    "attributes" : {
                        "POSITION" : 8,
                        "NORMAL" : 9,
                        "TEXCOORD_0" : 10
                    },
                    "indices" : 11
                }
            ]
        }
    ],
    "accessors" : [
        {
            "bufferView" : 0,
            "componentType" : 5126,
            "count" : 64,
            "max" : [
                0.25345519185066223,
                0.14874529838562012,
                0.2534552216529846
            ],
            "min" : [
                -0.2534552216529846,
                -0.28124094009399414,
                -0.2534552216529846
            ],
            "type" : "VEC3"
        },
        {
            "bufferView" : 1,
            "componentType" : 5126,
            "count" : 64,
            "type" : "VEC3"
        },
        {
            "bufferView" : 2,
            "componentType" : 5126,
            "count" : 64,
            "type" : "VEC2"
        },
        {
            "bufferView" : 3,
            "componentType" : 5123,
            "count" : 90,
            "type" : "SCALAR"
        },
        {
            "bufferView" : 4,
            "componentType" : 5126,
            "count" : 60,
            "max" : [
                0.33080124855041504,
                0.3478250205516815,
                0.10434749722480774
            ],
            "min" : [
                -0.33080124855041504,
                -0.28139638900756836,
                -0.10434749722480774
            ],
            "type" : "VEC3"
        },
        {
            "bufferView" : 5,
            "componentType" : 5126,
            "count" : 60,
            "type" : "VEC3"
        },
        {
            "bufferView" : 6,
            "componentType" : 5126,
            "count" : 60,
            "type" : "VEC2"
        },
        {
            "bufferView" : 7,
            "componentType" : 5123,
            "count" : 60,
            "type" : "SCALAR"
        },
        {
            "bufferView" : 8,
            "componentType" : 5126,
            "count" : 871,
            "max" : [
                0.2696835994720459,
                0.26972901821136475,
                0.03995224088430405
            ],
            "min" : [
                -0.2696623206138611,
                -0.2696169316768646,
                -0.03659382462501526
            ],
            "type" : "VEC3"
        },
        {
            "bufferView" : 9,
            "componentType" : 5126,
            "count" : 871,
            "type" : "VEC3"
        },
        {
            "bufferView" : 10,
            "componentType" : 5126,
            "count" : 871,
            "type" : "VEC2"
        },
        {
            "bufferView" : 11,
            "componentType" : 5123,
            "count" : 1362,
            "type" : "SCALAR"
        }
    ],
    "bufferViews" : [
        {
            "buffer" : 0,
            "byteLength" : 768,
            "byteOffset" : 0
        },
        {
            "buffer" : 0,
            "byteLength" : 768,
            "byteOffset" : 768
        },
        {
            "buffer" : 0,
            "byteLength" : 512,
            "byteOffset" : 1536
        },
        {
            "buffer" : 0,
            "byteLength" : 180,
            "byteOffset" : 2048
        },
        {
            "buffer" : 0,
            "byteLength" : 720,
            "byteOffset" : 2228
        },
        {
            "buffer" : 0,
            "byteLength" : 720,
            "byteOffset" : 2948
        },
        {
            "buffer" : 0,
            "byteLength" : 480,
            "byteOffset" : 3668
        },
        {
            "buffer" : 0,
            "byteLength" : 120,
            "byteOffset" : 4148
        },
        {
            "buffer" : 0,
            "byteLength" : 10452,
            "byteOffset" : 4268
        },
        {
            "buffer" : 0,
            "byteLength" : 10452,
            "byteOffset" : 14720
        },
        {
            "buffer" : 0,
            "byteLength" : 6968,
            "byteOffset" : 25172
        },
        {
            "buffer" : 0,
            "byteLength" : 2724,
            "byteOffset" : 32140
        }
    ],
    "buffers" : [
        {
            "byteLength" : 34864,
            "uri" : "data:application/octet-stream;base64,"
        }
    ]
}
